# xmcd CD database file
#
# Track frame offsets:
#	182
#	19605
#	39812
#	59282
#	79742
#	96892
#	115610
#	135237
#
# Disc length: 2066 seconds
#
# Revision: 0
# Processed by: cddbd v1.5.1PL2 Copyright (c) Steve Scherf et al.
# Submitted via: CDex 1.51
#
DISCID=51081008
DTITLE=Diveana - Noches de media Luna
DYEAR=1900
DGENRE=Merengue
TTITLE0=Noches de media luna
TTITLE1=Lo que yo se
TTITLE2=Cuando tu estas conmigo
TTITLE3=Boca loca
TTITLE4=Lejos de ti, cerca del cielo
TTITLE5=Frio y distante
TTITLE6=Y  te vas
TTITLE7=De amor y de miel
EXTD=
EXTT0=
EXTT1=
EXTT2=
EXTT3=
EXTT4=
EXTT5=
EXTT6=
EXTT7=
PLAYORDER=
